<?xml version="1.0" encoding="iso-8859-1"?>
<!-- Generator: Adobe Illustrator 18.1.1, SVG Export Plug-In . SVG Version: 6.00 Build 0)  -->
<svg version="1.1" id="Capa_1" xmlns="http://www.w3.org/2000/svg" xmlns:xlink="http://www.w3.org/1999/xlink" x="0px" y="0px" width="32px" height="32px"
	 viewBox="0 0 593.641 593.641" style="enable-background:new 0 0 593.641 593.641;" xml:space="preserve">
<g>
	<g>
		<path style="fill:#010002;" d="M593.641,142.29c0,3.876-1.432,7.242-4.285,10.098l-385.56,385.56
			c-2.448,2.856-5.712,4.284-9.792,4.284h-0.612h-0.612c-3.672,0-6.936-1.428-9.792-4.284L4.284,359.856
			C1.428,356.184,0,352.717,0,349.452c0-3.264,1.428-6.729,4.284-10.403l76.5-76.5c6.936-6.12,13.872-6.12,20.808,0l91.8,92.412
			L492.049,55.693c3.674-2.856,7.141-4.284,10.402-4.284c3.268,0,6.732,1.428,10.404,4.284l76.5,76.5
			C592.211,135.048,593.641,138.414,593.641,142.29z"/>
	</g>
</g>
<g>
</g>
<g>
</g>
<g>
</g>
<g>
</g>
<g>
</g>
<g>
</g>
<g>
</g>
<g>
</g>
<g>
</g>
<g>
</g>
<g>
</g>
<g>
</g>
<g>
</g>
<g>
</g>
<g>
</g>
</svg>
